<svg width="95" height="14" viewBox="0 0 95 14" fill="none" xmlns="http://www.w3.org/2000/svg">
<path fill-rule="evenodd" clip-rule="evenodd" d="M36.677 3.62204C38.1626 4.10113 39.0785 5.13982 39.4389 6.60891C39.784 8.01339 39.4001 9.35923 38.5384 10.4307C37.401 11.8422 34.5594 12.4684 32.7971 11.0917L32.7328 11.6523H30.8286V8.96463V2.17879C30.8286 0.97509 31.8312 0 33.0667 0V4.19257C33.8845 3.43716 35.3283 3.17773 36.677 3.62204ZM35.3854 9.83634C36.3054 9.73496 36.9241 9.20815 37.1927 8.35433C37.5684 6.95879 36.7638 5.23823 34.6513 5.44895C33.615 5.60302 33.1177 6.35147 33.1177 6.35147V8.96363C33.7048 9.66041 34.5155 9.93276 35.3854 9.83634ZM6.51475 2.09124H4.34097C3.5946 2.09124 2.98811 2.68066 2.98811 3.40726V4.67755H5.51312V6.75097H2.98811V11.8212C2.98811 13.0249 1.98545 14 0.75 14V3.50168C0.75 1.57735 2.352 0.0178184 4.32872 0.0178184H6.51475V2.09124ZM19.2808 11.6701H17.0427V2.20052C17.0427 0.996822 18.0453 0.0217385 19.2808 0.0217385V11.6701ZM52.8686 11.6701H50.6305V2.20052C50.6305 0.996822 51.6331 0.0217385 52.8686 0.0217385V11.6701ZM54.3899 11.6701H56.628V0.0217385C55.3925 0.0217385 54.3899 0.996822 54.3899 2.20052V11.6701ZM45.2405 11.8799C41.871 11.8799 40.4743 9.60072 40.6142 7.27284C40.7234 5.46381 42.1529 3.4043 45.1047 3.4043C48.4445 3.4043 49.7851 6.35142 49.2991 8.53319H43.0248C43.1504 9.35222 43.9662 9.9168 45.0659 9.98836C46.384 10.0738 47.2335 9.11069 47.2335 9.11069L48.9335 9.9844C48.1034 11.3292 46.7832 11.8799 45.2405 11.8799ZM45.1006 5.29782C43.517 5.28788 43.033 6.59694 43.0412 6.96967H47.0875C47.1243 6.64166 46.8006 5.30776 45.1006 5.29782ZM15.5407 3.82691C15.0383 3.82691 14.5779 3.99688 14.2154 4.27817C13.1147 3.50487 11.5046 3.1023 9.72694 3.68775C8.25052 4.16386 7.33976 5.1966 6.98138 6.65674C6.63831 8.05327 7.02018 9.39215 7.87682 10.4547C9.00404 11.8522 11.8098 12.4754 13.5629 11.1296L13.7396 11.6703H15.5417V5.85461L15.5407 3.82691ZM13.3302 9.04724C12.7002 9.75595 11.8762 9.91697 11.0104 9.82155C10.0965 9.72017 9.48087 9.24207 9.21336 8.39222C8.83966 7.00563 9.64015 5.25028 11.7394 5.46001C12.8932 5.63395 13.3291 6.45099 13.3291 6.45099V9.04724H13.3302ZM65.4692 4.28005C65.8316 3.99776 66.2921 3.82878 66.7945 3.82878H66.7955V5.85648V11.6722H64.9934L64.8167 11.1315C63.0636 12.4773 60.2578 11.8541 59.1306 10.4566C58.2739 9.39403 57.8921 8.05514 58.2352 6.65861C58.5935 5.19847 59.5043 4.16573 60.9807 3.68962C62.7583 3.10417 64.3685 3.50674 65.4692 4.28005ZM62.2641 9.82342C63.13 9.91884 63.954 9.75782 64.5839 9.04911H64.5829V6.45286C64.5829 6.45286 64.1469 5.63582 62.9932 5.46188C60.8939 5.25215 60.0934 7.0075 60.4671 8.39409C60.7346 9.24394 61.3503 9.72204 62.2641 9.82342ZM27.9993 4.27817C26.8986 3.50487 25.2884 3.1023 23.5108 3.68775C22.0344 4.16386 21.1236 5.1966 20.7653 6.65674C20.4222 8.05327 20.8041 9.39215 21.6607 10.4547C22.7879 11.8522 25.5937 12.4754 27.3468 11.1296L27.5235 11.6703H29.3256V5.85461V3.82591C28.8222 3.82691 28.3628 3.99589 27.9993 4.27817ZM27.114 9.04724C26.4841 9.75595 25.6601 9.91697 24.7942 9.82155C23.8804 9.72017 23.2647 9.24207 22.9972 8.39222C22.6235 7.00563 23.424 5.25028 25.5233 5.46001C26.677 5.63395 27.113 6.45099 27.113 6.45099V9.04724H27.114ZM76.4136 8.3067C76.4136 6.39729 77.9104 4.95602 79.8953 4.95602C81.8873 4.95602 83.3893 6.39629 83.3903 8.3067C83.3903 10.2251 81.8873 11.6703 79.8953 11.6703C77.9104 11.6703 76.4136 10.2251 76.4136 8.3067ZM78.2076 8.30571C78.2076 9.31658 78.9162 10.0501 79.8943 10.0501C80.8643 10.0501 81.5964 9.30067 81.5964 8.30571C81.5964 7.31969 80.8653 6.5762 79.8943 6.5762C78.9325 6.5762 78.2076 7.31969 78.2076 8.30571ZM91.6392 4.95606C90.611 4.87952 89.7319 5.39838 89.2418 5.69359C88.6793 5.25227 88.0523 4.95606 87.2508 4.95606C85.7581 4.95606 84.2347 5.82877 84.2347 5.82877V11.5183H85.9766V6.80187C86.2574 6.60407 86.7648 6.57723 87.0487 6.57723C87.6439 6.57723 88.3382 7.03148 88.3382 7.79883V11.5183H90.0801V7.37141C90.0801 7.03744 89.9862 6.86746 89.9862 6.86746C91.1481 6.23629 92.5081 6.71739 92.5081 7.79883V11.5183H94.25V7.77298C94.249 5.95402 92.8042 5.04254 91.6392 4.95606ZM73.3995 6.57612C72.5725 6.57612 71.8741 7.25699 71.7383 8.03526C71.2993 7.61879 70.7224 7.33949 70.0802 7.26494C70.5243 5.89624 71.8384 4.95495 73.4782 4.95495C74.9342 4.95495 75.9368 5.74913 75.9368 5.74913L75.0465 7.11088C75.0465 7.11088 74.3685 6.57612 73.3995 6.57612ZM75.0934 9.47736C75.0934 9.47736 74.4267 10.0489 73.4006 10.0489C73.1106 10.0489 72.8369 9.96441 72.597 9.82128C72.6021 9.89086 72.6062 9.96044 72.6062 10.031C72.6062 10.5538 72.4581 11.0429 72.2008 11.4613C72.595 11.5965 73.0248 11.6701 73.4802 11.6701C75.1108 11.6701 76.0256 10.7506 76.0256 10.7506L75.0934 9.47736ZM71.3452 10.0321C71.3452 10.8934 70.628 11.5917 69.7432 11.5917C68.8584 11.5917 68.1412 10.8934 68.1412 10.0321C68.1412 9.17081 68.8584 8.47258 69.7432 8.47258C70.628 8.47258 71.3452 9.17081 71.3452 10.0321Z" fill="#AAD500"/>
</svg>
