<svg width="117" height="10" viewBox="0 0 117 10" fill="none" xmlns="http://www.w3.org/2000/svg">
<g clip-path="url(#clip0_2127_13823)">
<path d="M3.94021 0.906546L0.505676 4.34324V9.65762H13.5655V4.34324L10.131 0.906546H7.9906V0H6.33901V0.906546H3.94021Z" fill="black"/>
<mask id="mask0_2127_13823" style="mask-type:luminance" maskUnits="userSpaceOnUse" x="0" y="0" width="14" height="10">
<path d="M3.94021 0.906546L0.505676 4.34324V9.65762H13.5655V4.34324L10.131 0.906546H7.9906V0H6.33901V0.906546H3.94021Z" fill="white"/>
</mask>
<g mask="url(#mask0_2127_13823)">
<path d="M7.5061 5.25H12.6913V8.74914H7.5061V5.25Z" fill="white"/>
</g>
<mask id="mask1_2127_13823" style="mask-type:luminance" maskUnits="userSpaceOnUse" x="0" y="0" width="14" height="10">
<path d="M3.94021 0.906546L0.505676 4.34324V9.65762H13.5655V4.34324L10.131 0.906546H7.9906V0H6.33901V0.906546H3.94021Z" fill="white"/>
</mask>
<g mask="url(#mask1_2127_13823)">
<path d="M3.94019 2.00879L1.60815 4.34298H6.27439L3.94019 2.00879Z" fill="#FBD600"/>
</g>
<mask id="mask2_2127_13823" style="mask-type:luminance" maskUnits="userSpaceOnUse" x="0" y="0" width="14" height="10">
<path d="M3.94021 0.906546L0.505676 4.34324V9.65762H13.5655V4.34324L10.131 0.906546H7.9906V0H6.33901V0.906546H3.94021Z" fill="white"/>
</mask>
<g mask="url(#mask2_2127_13823)">
<path d="M1.41223 5.25H6.56511V8.74914H1.41223V5.25Z" fill="#DD0021"/>
</g>
<mask id="mask3_2127_13823" style="mask-type:luminance" maskUnits="userSpaceOnUse" x="0" y="0" width="14" height="10">
<path d="M3.94021 0.906546L0.505676 4.34324V9.65762H13.5655V4.34324L10.131 0.906546H7.9906V0H6.33901V0.906546H3.94021Z" fill="white"/>
</mask>
<g mask="url(#mask3_2127_13823)">
<path d="M4.84894 1.81543L7.37478 4.34342H12.4631L9.93507 1.81543H4.84894Z" fill="#0072CE"/>
</g>
<path d="M25.2107 9.78285H22.9497V6.85003H19.5388V9.78285H17.2692V2.26562H19.5388V5.02833H22.9497V2.26562H25.2107V9.78285Z" fill="#0072CE"/>
<path d="M32.252 6.02885C32.2556 5.76587 32.2133 5.50429 32.1271 5.25581C32.0469 5.02856 31.9183 4.8214 31.7503 4.64857C31.575 4.47333 31.3653 4.33624 31.1345 4.2459C30.8659 4.14656 30.581 4.09835 30.2947 4.10379C30.0319 4.08923 29.769 4.12894 29.5223 4.22045C29.2755 4.31195 29.0503 4.45329 28.8606 4.63565C28.6851 4.82136 28.5487 5.0403 28.4592 5.27957C28.3697 5.51884 28.329 5.7736 28.3395 6.02885C28.3228 6.28916 28.362 6.55003 28.4546 6.79388C28.5472 7.03774 28.691 7.25893 28.8763 7.44255C29.0615 7.62618 29.284 7.76799 29.5286 7.85842C29.7733 7.94886 30.0345 7.98582 30.2947 7.96683C30.6641 7.97819 31.03 7.89282 31.3563 7.7192C31.641 7.56214 31.8731 7.32474 32.0238 7.0366C32.1816 6.72458 32.26 6.37843 32.252 6.02885ZM34.5625 6.02885C34.5685 6.70553 34.4017 7.37254 34.078 7.96683C33.7437 8.5665 33.2405 9.05471 32.631 9.3708C31.9084 9.73814 31.1049 9.91737 30.2947 9.8919C29.4715 9.91846 28.6555 9.73152 27.926 9.34926C27.3193 9.02473 26.8213 8.52902 26.4941 7.92377C26.1872 7.33966 26.0269 6.68974 26.0269 6.02993C26.0269 5.37012 26.1872 4.72019 26.4941 4.13608C26.8225 3.53204 27.3212 3.03784 27.9282 2.7149C28.658 2.33376 29.4739 2.14758 30.2968 2.17441C30.9307 2.16013 31.5619 2.26156 32.1594 2.47373C32.6613 2.65488 33.1187 2.9412 33.501 3.31352C33.8505 3.66322 34.1221 4.083 34.2977 4.54522C34.4778 5.01889 34.5676 5.52211 34.5625 6.02885Z" fill="#0072CE"/>
<path d="M44.1577 9.7848H41.8902V5.4308L39.8446 7.95449H39.6659L37.6159 5.4308V9.7848H35.4152V2.26758H37.4695L39.78 5.09058L42.1013 2.26758H44.1577V9.7848Z" fill="#0072CE"/>
<path d="M50.6478 9.7848H44.9781V2.26758H50.553V3.77921H47.2455V5.15302H50.4023V6.6668H47.2455V8.27318H50.6478V9.7848Z" fill="#0072CE"/>
<path d="M58.6882 9.22293C58.3831 9.38379 58.0628 9.51434 57.7322 9.61268C57.4113 9.71388 57.0819 9.78595 56.7481 9.82801C56.4066 9.86989 56.0629 9.89075 55.7188 9.89046C55.1213 9.89924 54.5266 9.80753 53.9596 9.61914C53.4611 9.44595 53.0036 9.17179 52.6159 8.8138C52.2398 8.47158 51.9454 8.04916 51.7546 7.5778C51.561 7.08477 51.4638 6.5592 51.4682 6.02956C51.455 5.44461 51.5704 4.8639 51.8063 4.32844C52.0192 3.85596 52.3409 3.44054 52.7451 3.11613C53.1538 2.79127 53.6219 2.54917 54.1232 2.40338C54.6523 2.24695 55.2016 2.16932 55.7533 2.17298C56.7418 2.19816 57.7192 2.3881 58.6452 2.73499V4.73757C58.293 4.51726 57.9244 4.32433 57.5427 4.16049C57.1321 3.99672 56.6925 3.91833 56.2507 3.93008C55.8283 3.92761 55.4103 4.01649 55.0255 4.19063C54.6651 4.35242 54.3539 4.60645 54.1232 4.92707C53.905 5.24519 53.7847 5.62021 53.777 6.0059C53.7694 6.39158 53.8748 6.77107 54.0802 7.09761C54.2875 7.42034 54.5785 7.6808 54.9221 7.85127C55.3001 8.04306 55.7192 8.13987 56.143 8.13335C56.492 8.13494 56.8395 8.09004 57.1766 7.99985C57.459 7.92594 57.7342 7.82722 57.9992 7.70484C58.2356 7.58951 58.4656 7.46156 58.6882 7.32155V9.22293Z" fill="#0072CE"/>
<path d="M65.1741 9.7848H59.5065V2.26758H65.0836V3.77921H61.7761V5.15302H64.9307V6.6668H61.7761V8.27318H65.1741V9.7848Z" fill="#0072CE"/>
<path d="M74.2072 9.7848H72.1895L68.2899 5.59876V9.7848H66.0418V2.26758H68.0552L71.944 6.43424V2.26758H74.2072V9.7848Z" fill="#0072CE"/>
<path d="M82.7989 4.0979H80.0448V9.78696H77.7838V4.0979H75.0276V2.26758H82.7989V4.0979Z" fill="#0072CE"/>
<path d="M89.2868 9.7848H83.6193V2.26758H89.1964V3.77921H85.8868V5.15302H89.0414V6.6668H85.8868V8.27318H89.2868V9.7848Z" fill="#0072CE"/>
<path d="M94.2288 4.64434C94.2431 4.50345 94.2186 4.36133 94.1578 4.2334C94.0971 4.10547 94.0025 3.99662 93.8842 3.91867C93.5385 3.75267 93.1558 3.67851 92.7731 3.70334H92.2972V5.51428H92.7839C93.3395 5.51428 93.7163 5.45399 93.9208 5.3334C94.1254 5.21282 94.2288 4.98026 94.2288 4.63573M97.308 9.77569H94.8726L94.2826 8.44494C94.1278 8.06508 93.9306 7.70391 93.6947 7.36829C93.5686 7.18116 93.3936 7.0322 93.1887 6.93762C92.9812 6.86577 92.7622 6.83292 92.5427 6.84072H92.2886V9.7843H90.0276V2.26708H93.8842C94.4206 2.24471 94.952 2.37701 95.4152 2.64822C95.7831 2.8686 96.0815 3.18795 96.2766 3.56984C96.4433 3.88872 96.5346 4.24157 96.5436 4.60128C96.556 4.93532 96.4818 5.2669 96.3283 5.56381C96.216 5.78522 96.0582 5.98042 95.8653 6.13659C95.6909 6.26339 95.5074 6.37711 95.3162 6.47681C95.5378 6.60876 95.7346 6.77857 95.8976 6.97854C96.1525 7.34735 96.369 7.74131 96.5436 8.15424L97.308 9.77569Z" fill="#0072CE"/>
<path d="M99.3881 9.90066C99.8733 9.90066 100.267 9.50732 100.267 9.02211C100.267 8.5369 99.8733 8.14355 99.3881 8.14355C98.9029 8.14355 98.5095 8.5369 98.5095 9.02211C98.5095 9.50732 98.9029 9.90066 99.3881 9.90066Z" fill="#DD0021"/>
<path d="M114.685 6.13258C114.689 5.86889 114.647 5.60657 114.56 5.35739C114.479 5.12962 114.35 4.92187 114.181 4.748C114.006 4.57299 113.796 4.43656 113.566 4.34748C113.297 4.24618 113.011 4.19721 112.724 4.20321C112.46 4.18851 112.197 4.22835 111.95 4.32024C111.703 4.41214 111.477 4.5541 111.287 4.73723C111.111 4.92291 110.974 5.14216 110.885 5.38189C110.795 5.62162 110.755 5.87693 110.766 6.13258C110.749 6.39309 110.789 6.65415 110.882 6.89817C110.974 7.14219 111.118 7.36349 111.304 7.54715C111.489 7.73082 111.712 7.87257 111.957 7.96286C112.202 8.05315 112.463 8.08988 112.724 8.07057C113.094 8.0822 113.46 7.99683 113.787 7.82294C114.073 7.66512 114.306 7.42704 114.457 7.13818C114.614 6.82818 114.692 6.48432 114.685 6.13689M117 6.13689C117.006 6.81381 116.838 7.48092 116.513 8.07487C116.177 8.67349 115.672 9.16017 115.062 9.47453C114.338 9.84205 113.533 10.0213 112.721 9.99563C111.898 10.0223 111.082 9.83534 110.353 9.453C109.745 9.12634 109.246 8.62943 108.916 8.02319C108.608 7.43839 108.447 6.78724 108.447 6.12612C108.447 5.46501 108.608 4.81386 108.916 4.22905C109.246 3.62421 109.745 3.1293 110.353 2.80571C111.083 2.42428 111.898 2.23739 112.721 2.26307C113.357 2.25573 113.988 2.36447 114.584 2.58392C115.088 2.76373 115.547 3.05019 115.93 3.42371C116.28 3.77449 116.552 4.19485 116.729 4.65756C116.909 5.12832 117.001 5.62839 117 6.13258" fill="#DD0021"/>
<path d="M107.609 9.33639C107.308 9.49729 106.991 9.62854 106.664 9.72829C106.342 9.82926 106.012 9.90132 105.678 9.94362C105.336 9.9855 104.993 10.0064 104.649 10.0061C104.05 10.015 103.454 9.9233 102.885 9.73475C102.384 9.56413 101.923 9.29138 101.533 8.93372C101.157 8.59069 100.862 8.16756 100.671 7.69556C100.477 7.19975 100.38 6.67122 100.385 6.13871C100.371 5.55278 100.487 4.97105 100.725 4.43544C100.938 3.96078 101.26 3.54368 101.666 3.21882C102.076 2.8939 102.545 2.65181 103.047 2.50607C103.576 2.34907 104.126 2.27071 104.679 2.27351C105.673 2.30058 106.655 2.49344 107.586 2.84414V4.84457C107.233 4.62423 106.864 4.4313 106.481 4.26748C106.071 4.10234 105.631 4.02319 105.189 4.03492C104.766 4.03221 104.347 4.1211 103.962 4.29547C103.594 4.4577 103.277 4.71487 103.042 5.04052C102.823 5.35888 102.701 5.73479 102.694 6.12147C102.686 6.50816 102.792 6.88856 102.999 7.21537C103.207 7.53745 103.498 7.79719 103.841 7.96688C104.219 8.158 104.638 8.25408 105.062 8.24681C105.412 8.24803 105.761 8.20388 106.1 8.11546C106.382 8.04086 106.658 7.94142 106.923 7.8183C107.158 7.70197 107.388 7.57257 107.609 7.4307V9.33639Z" fill="#DD0021"/>
</g>
<defs>
<clipPath id="clip0_2127_13823">
<rect width="116.494" height="10" fill="white" transform="translate(0.505676)"/>
</clipPath>
</defs>
</svg>
