<svg width="48" height="32" viewBox="0 0 48 32" fill="none" xmlns="http://www.w3.org/2000/svg">
<g clip-path="url(#clip0_486_4938)">
<path fill-rule="evenodd" clip-rule="evenodd" d="M42.4583 14.5908C43.2739 14.5908 44.056 14.9148 44.6327 15.4914C45.2094 16.0681 45.5333 16.8503 45.5333 17.6658C45.5333 18.4813 45.2094 19.2635 44.6327 19.8402C44.056 20.4168 43.2739 20.7408 42.4583 20.7408C41.6428 20.7408 40.8607 20.4168 40.284 19.8402C39.7073 19.2635 39.3833 18.4813 39.3833 17.6658C39.3833 16.8503 39.7073 16.0681 40.284 15.4914C40.8607 14.9148 41.6428 14.5908 42.4583 14.5908ZM42.4583 22.7915C43.8177 22.7915 45.1214 22.2515 46.0826 21.2903C47.0438 20.3291 47.5838 19.0254 47.5838 17.6661C47.5838 16.3067 47.0438 15.003 46.0826 14.0418C45.1214 13.0806 43.8177 12.5406 42.4583 12.5406C41.099 12.5406 39.7953 13.0806 38.8341 14.0418C37.8729 15.003 37.3329 16.3067 37.3329 17.6661C37.3329 19.0254 37.8729 20.3291 38.8341 21.2903C39.7953 22.2515 41.099 22.7915 42.4583 22.7915Z" fill="#333333"/>
<path fill-rule="evenodd" clip-rule="evenodd" d="M18.3414 22.5367H20.4998V12.8254H18.3414V22.5367ZM33.9346 22.535H36.093V12.8237H33.9346V22.535ZM30.2696 18.5947L22.0131 12.5782V22.5361H24.1703V16.8126L32.4262 22.8291V12.8215H30.2696V18.5947Z" fill="#333333"/>
<mask id="mask0_486_4938" style="mask-type:alpha" maskUnits="userSpaceOnUse" x="0" y="8" width="9" height="15">
<path d="M4.42423 9.96083L0.105378 19.2016C0.0387615 19.3436 0.00285428 19.4982 0 19.6551V19.6981C0.00772405 20.1174 0.249928 20.518 0.654889 20.7061L4.76243 22.6172V12.4392L8.86059 8.35092L4.42423 9.96083Z" fill="white"/>
</mask>
<g mask="url(#mask0_486_4938)">
<path fill-rule="evenodd" clip-rule="evenodd" d="M4.42423 9.96083L0.105378 19.2016C0.0387615 19.3436 0.00285428 19.4982 0 19.6551V19.6981C0.00772405 20.1174 0.249928 20.518 0.654889 20.7061L4.76243 22.6172V12.4392L8.86059 8.35092L4.42423 9.96083Z" fill="url(#paint0_linear_486_4938)"/>
</g>
<mask id="mask1_486_4938" style="mask-type:alpha" maskUnits="userSpaceOnUse" x="5" y="7" width="12" height="18">
<path d="M11.2662 7.72424C10.9736 7.72753 10.6938 7.84515 10.4867 8.05196L5.66245 12.8889V23.0261C5.66274 23.3244 5.78115 23.6103 5.99177 23.8215C6.20239 24.0326 6.48807 24.1517 6.78629 24.1527L15.776 24.1522C16.074 24.1512 16.3594 24.0322 16.5699 23.8213C16.7804 23.6104 16.8989 23.3247 16.8993 23.0267V12.8883L12.0762 8.05196C11.8686 7.84518 11.5885 7.72759 11.2955 7.72424H11.2662ZM10.5788 9.50905C10.5788 9.41682 10.597 9.32549 10.6323 9.24028C10.6676 9.15507 10.7193 9.07764 10.7845 9.01242C10.8497 8.94721 10.9272 8.89547 11.0124 8.86018C11.0976 8.82488 11.1889 8.80671 11.2811 8.80671C11.3734 8.80671 11.4647 8.82488 11.5499 8.86018C11.6351 8.89547 11.7126 8.94721 11.7778 9.01242C11.843 9.07764 11.8947 9.15507 11.93 9.24028C11.9653 9.32549 11.9835 9.41682 11.9835 9.50905C11.9872 9.60363 11.9718 9.69798 11.9382 9.78646C11.9046 9.87495 11.8535 9.95573 11.7879 10.024C11.7223 10.0922 11.6436 10.1465 11.5565 10.1836C11.4695 10.2207 11.3758 10.2398 11.2811 10.2398C11.1865 10.2398 11.0928 10.2207 11.0057 10.1836C10.9187 10.1465 10.84 10.0922 10.7744 10.024C10.7088 9.95573 10.6577 9.87495 10.6241 9.78646C10.5904 9.69798 10.5751 9.60363 10.5788 9.50905Z" fill="white"/>
</mask>
<g mask="url(#mask1_486_4938)">
<path fill-rule="evenodd" clip-rule="evenodd" d="M11.2662 7.72424C10.9736 7.72753 10.6938 7.84515 10.4867 8.05196L5.66245 12.8889V23.0261C5.66274 23.3244 5.78115 23.6103 5.99177 23.8215C6.20239 24.0326 6.48807 24.1517 6.78629 24.1527L15.776 24.1522C16.074 24.1512 16.3594 24.0322 16.5699 23.8213C16.7804 23.6104 16.8989 23.3247 16.8993 23.0267V12.8883L12.0762 8.05196C11.8686 7.84518 11.5885 7.72759 11.2955 7.72424H11.2662ZM10.5788 9.50905C10.5788 9.41682 10.597 9.32549 10.6323 9.24028C10.6676 9.15507 10.7193 9.07764 10.7845 9.01242C10.8497 8.94721 10.9272 8.89547 11.0124 8.86018C11.0976 8.82488 11.1889 8.80671 11.2811 8.80671C11.3734 8.80671 11.4647 8.82488 11.5499 8.86018C11.6351 8.89547 11.7126 8.94721 11.7778 9.01242C11.843 9.07764 11.8947 9.15507 11.93 9.24028C11.9653 9.32549 11.9835 9.41682 11.9835 9.50905C11.9872 9.60363 11.9718 9.69798 11.9382 9.78646C11.9046 9.87495 11.8535 9.95573 11.7879 10.024C11.7223 10.0922 11.6436 10.1465 11.5565 10.1836C11.4695 10.2207 11.3758 10.2398 11.2811 10.2398C11.1865 10.2398 11.0928 10.2207 11.0057 10.1836C10.9187 10.1465 10.84 10.0922 10.7744 10.024C10.7088 9.95573 10.6577 9.87495 10.6241 9.78646C10.5904 9.69798 10.5751 9.60363 10.5788 9.50905Z" fill="url(#paint1_linear_486_4938)"/>
</g>
<path fill-rule="evenodd" clip-rule="evenodd" d="M10.2187 20.3652V12.7995H8.05707V22.5274H14.5409V20.3647L10.2187 20.3652Z" fill="white"/>
</g>
<defs>
<linearGradient id="paint0_linear_486_4938" x1="4.4303" y1="8.35092" x2="4.4303" y2="22.6172" gradientUnits="userSpaceOnUse">
<stop stop-color="#FF6503"/>
<stop offset="1" stop-color="#C8009F"/>
</linearGradient>
<linearGradient id="paint1_linear_486_4938" x1="11.2809" y1="7.72424" x2="11.2809" y2="24.1527" gradientUnits="userSpaceOnUse">
<stop stop-color="#FF6503"/>
<stop offset="1" stop-color="#C8009F"/>
</linearGradient>
<clipPath id="clip0_486_4938">
<rect width="48" height="16.5515" fill="white" transform="translate(0 7.72424)"/>
</clipPath>
</defs>
</svg>
