<svg width="25" height="24" viewBox="0 0 25 24" fill="none" xmlns="http://www.w3.org/2000/svg">
<path d="M13.6528 17.4867H15.0293V9.80469C14.2699 9.80469 13.6528 10.4475 13.6528 11.2411V17.4867Z" fill="#AAD500"/>
<path d="M15.9644 17.4867H17.3409V9.80469C16.5814 9.80469 15.9644 10.4475 15.9644 11.2411V17.4867Z" fill="#AAD500"/>
<path d="M10.251 13.284C9.2764 13.2776 8.97895 14.1416 8.98528 14.3869H11.4741C11.4978 14.1705 11.2984 13.292 10.2526 13.284M10.338 17.6252C8.26539 17.6252 7.40626 16.1215 7.49328 14.5857C7.55973 13.393 8.43943 12.0352 10.2542 12.0352C12.3094 12.0352 13.1338 13.9781 12.8347 15.4177H8.97579C9.05331 15.9579 9.55487 16.3299 10.2305 16.378C11.0405 16.4341 11.5642 15.7992 11.5642 15.7992L12.6101 16.3763C12.1006 17.2629 11.2874 17.6268 10.338 17.6268" fill="#AAD500"/>
<path d="M5.38746 15.3009C5.22291 15.8636 4.8416 16.2114 4.27518 16.2788C3.7404 16.3429 3.24202 16.1633 2.8797 15.7032V13.9815C2.8797 13.9815 3.18506 13.4878 3.82268 13.3868C5.12165 13.2473 5.61687 14.3823 5.38587 15.3025M6.76712 14.1514C6.54562 13.1832 5.98236 12.497 5.06786 12.1812C4.23879 11.8879 3.3496 12.0594 2.84647 12.5564V9.79102C2.08544 9.79102 1.46997 10.4339 1.46997 11.2274V17.4763H2.64395L2.68351 17.106C3.7673 18.0133 5.51561 17.6013 6.21494 16.6699C6.74497 15.9646 6.98072 15.0764 6.7687 14.1498" fill="#AAD500"/>
<path d="M15.9722 7.68596H17.3487V0.00390625C16.5892 0.00390625 15.9722 0.646749 15.9722 1.44028V7.68596Z" fill="#AAD500"/>
<path d="M8.28588 1.36744H9.62282V0H8.27797C7.06285 0 6.07715 1.02919 6.07715 2.29724V9.22103C6.8366 9.22103 7.45365 8.57818 7.45365 7.78465V4.44059H9.00735V3.07314H7.45365V2.23472C7.45365 1.75539 7.82546 1.36584 8.28588 1.36584" fill="#AAD500"/>
<path d="M13.6892 5.95518C13.3016 6.42168 12.7953 6.52909 12.2621 6.46496C11.7004 6.39763 11.3207 6.08182 11.1577 5.52234C10.9283 4.60857 11.4203 3.44953 12.7114 3.589C13.4218 3.70443 13.6892 4.24307 13.6892 4.24307V5.95518ZM15.0483 2.51172C14.7398 2.51172 14.4566 2.62394 14.2335 2.8099C13.5563 2.30011 12.5658 2.034 11.4726 2.42034C10.5644 2.73455 10.0043 3.41587 9.78436 4.37933C9.57393 5.30111 9.8081 6.18282 10.335 6.88497C11.028 7.80676 12.7541 8.21875 13.8316 7.33064L13.9408 7.68652H15.0499V2.51172H15.0483Z" fill="#AAD500"/>
<path d="M22.1682 5.95518C21.7806 6.42328 21.2743 6.52909 20.7411 6.46657C20.1794 6.39924 19.7997 6.08343 19.6367 5.52394C19.4073 4.60857 19.8993 3.45114 21.1904 3.59061C21.9008 3.70603 22.1682 4.24467 22.1682 4.24467V5.95678V5.95518ZM22.7125 2.8099C22.0353 2.30011 21.0448 2.034 19.9516 2.42034C19.0434 2.73455 18.4833 3.41587 18.2634 4.37933C18.0529 5.30111 18.2871 6.18282 18.814 6.88497C19.507 7.80676 21.2331 8.21875 22.3106 7.33064L22.4198 7.68652H23.5289V2.51172C23.2203 2.51172 22.9371 2.62394 22.7141 2.8099" fill="#AAD500"/>
<path d="M22.1587 15.756C21.771 16.2225 21.2647 16.3299 20.7315 16.2657C20.1699 16.1984 19.7901 15.8826 19.6272 15.3231C19.3978 14.4094 19.8898 13.2503 21.1809 13.3898C21.8913 13.5052 22.1587 14.0438 22.1587 14.0438V15.756ZM23.5178 12.3125C23.2092 12.3125 22.926 12.4247 22.7029 12.6107C22.0258 12.1009 21.0353 11.8348 19.942 12.2211C19.0339 12.5353 18.4738 13.2166 18.2538 14.1801C18.0434 15.1019 18.2776 15.9836 18.8044 16.6858C19.4974 17.6075 21.2236 18.0195 22.3011 17.1314L22.4102 17.4873H23.5194V12.3141L23.5178 12.3125Z" fill="#AAD500"/>
<path d="M14.689 22.9304C14.0878 22.9304 13.6511 22.4463 13.6511 21.781C13.6511 21.1157 14.0973 20.6412 14.689 20.6412C15.2808 20.6412 15.7364 21.1317 15.7364 21.781C15.7364 22.4302 15.2871 22.9304 14.689 22.9304ZM14.689 19.5703C13.4692 19.5703 12.5483 20.5209 12.5483 21.781C12.5483 23.041 13.4692 23.9997 14.689 23.9997C15.9089 23.9997 16.8376 23.0458 16.8376 21.781C16.8376 20.5161 15.9136 19.5703 14.689 19.5703Z" fill="#AAD500"/>
<path d="M21.9134 19.5716C21.2805 19.5203 20.741 19.8633 20.4388 20.0573C20.0923 19.7655 19.7078 19.5716 19.2142 19.5716C18.2965 19.5716 17.3599 20.1471 17.3599 20.1471V23.8983H18.431V20.7883C18.6035 20.6569 18.9151 20.6408 19.0908 20.6408C19.4563 20.6408 19.8834 20.9406 19.8834 21.4456V23.8983H20.9546V21.1635C20.9546 20.9422 20.8976 20.8316 20.8976 20.8316C21.6128 20.4148 22.4482 20.7322 22.4482 21.4456V23.8983H23.5193V21.428C23.5193 20.2288 22.6301 19.6277 21.9134 19.57" fill="#AAD500"/>
<path d="M9.67371 21.6034C9.75757 21.0904 10.1863 20.6415 10.6958 20.6415C11.2923 20.6415 11.71 20.9942 11.71 20.9942L12.2574 20.0965C12.2574 20.0965 11.6404 19.5723 10.7448 19.5723C9.737 19.5723 8.9285 20.1927 8.65479 21.0968C9.04875 21.1449 9.40316 21.3293 9.67371 21.6034Z" fill="#AAD500"/>
<path d="M11.7367 22.5547C11.7367 22.5547 11.327 22.9314 10.6957 22.9314C10.5169 22.9314 10.3492 22.8753 10.202 22.7807C10.2052 22.8272 10.2068 22.8721 10.2068 22.9186C10.2068 23.2633 10.115 23.5855 9.95679 23.8628C10.1989 23.951 10.4631 24.0007 10.7431 24.0007C11.7462 24.0007 12.3095 23.3947 12.3095 23.3947L11.7367 22.5547Z" fill="#AAD500"/>
<path d="M9.43161 22.9198C9.43161 23.4873 8.99018 23.949 8.44591 23.949C7.90163 23.949 7.46021 23.4889 7.46021 22.9198C7.46021 22.3507 7.90163 21.8906 8.44591 21.8906C8.99018 21.8906 9.43161 22.3507 9.43161 22.9198Z" fill="#AAD500"/>
</svg>
