<svg width="25" height="24" viewBox="0 0 25 24" fill="none" xmlns="http://www.w3.org/2000/svg">
<mask id="mask0_5410_43390" style="mask-type:alpha" maskUnits="userSpaceOnUse" x="2" y="3" width="11" height="17">
<path d="M7.73599 4.92679L2.62471 15.863C2.54587 16.0312 2.50338 16.2141 2.5 16.3997V16.4507C2.50914 16.9469 2.79579 17.4209 3.27505 17.6436L8.13625 19.9054V7.85983L12.9864 3.02148L7.73599 4.92679Z" fill="white"/>
</mask>
<g mask="url(#mask0_5410_43390)">
<path fill-rule="evenodd" clip-rule="evenodd" d="M7.73599 4.92679L2.62471 15.863C2.54587 16.0312 2.50338 16.2141 2.5 16.3997V16.4507C2.50914 16.9469 2.79579 17.4209 3.27505 17.6436L8.13625 19.9054V7.85983L12.9864 3.02148L7.73599 4.92679Z" fill="url(#paint0_linear_5410_43390)"/>
</g>
<mask id="mask1_5410_43390" style="mask-type:alpha" maskUnits="userSpaceOnUse" x="9" y="2" width="14" height="20">
<path d="M15.8334 2.2793C15.487 2.28319 15.1559 2.42238 14.9108 2.66715L9.20142 8.39154V20.3888C9.20176 20.7418 9.3419 21.0802 9.59116 21.3301C9.84043 21.58 10.1785 21.7209 10.5315 21.7221L21.1706 21.7215C21.5233 21.7203 21.8611 21.5795 22.1102 21.3299C22.3594 21.0802 22.4995 20.7421 22.5 20.3895V8.39089L16.7919 2.66715C16.5463 2.42242 16.2148 2.28326 15.868 2.2793H15.8334ZM15.0198 4.39158C15.0198 4.28243 15.0413 4.17434 15.0831 4.0735C15.1249 3.97265 15.1861 3.88102 15.2633 3.80383C15.3405 3.72665 15.4321 3.66542 15.533 3.62365C15.6338 3.58188 15.7419 3.56038 15.851 3.56038C15.9602 3.56038 16.0683 3.58188 16.1691 3.62365C16.27 3.66542 16.3616 3.72665 16.4388 3.80383C16.516 3.88102 16.5772 3.97265 16.619 4.0735C16.6607 4.17434 16.6822 4.28243 16.6822 4.39158C16.6867 4.50351 16.6685 4.61518 16.6287 4.7199C16.5889 4.82461 16.5284 4.92022 16.4508 5.00098C16.3732 5.08174 16.28 5.14599 16.177 5.18988C16.0739 5.23377 15.9631 5.25639 15.851 5.25639C15.739 5.25639 15.6282 5.23377 15.5251 5.18988C15.422 5.14599 15.3289 5.08174 15.2513 5.00098C15.1737 4.92022 15.1132 4.82461 15.0734 4.7199C15.0336 4.61518 15.0154 4.50351 15.0198 4.39158Z" fill="white"/>
</mask>
<g mask="url(#mask1_5410_43390)">
<path fill-rule="evenodd" clip-rule="evenodd" d="M15.8334 2.2793C15.487 2.28319 15.1559 2.42238 14.9108 2.66715L9.20142 8.39154V20.3888C9.20176 20.7418 9.3419 21.0802 9.59116 21.3301C9.84043 21.58 10.1785 21.7209 10.5315 21.7221L21.1706 21.7215C21.5233 21.7203 21.8611 21.5795 22.1102 21.3299C22.3594 21.0802 22.4995 20.7421 22.5 20.3895V8.39089L16.7919 2.66715C16.5463 2.42242 16.2148 2.28326 15.868 2.2793H15.8334ZM15.0198 4.39158C15.0198 4.28243 15.0413 4.17434 15.0831 4.0735C15.1249 3.97265 15.1861 3.88102 15.2633 3.80383C15.3405 3.72665 15.4321 3.66542 15.533 3.62365C15.6338 3.58188 15.7419 3.56038 15.851 3.56038C15.9602 3.56038 16.0683 3.58188 16.1691 3.62365C16.27 3.66542 16.3616 3.72665 16.4388 3.80383C16.516 3.88102 16.5772 3.97265 16.619 4.0735C16.6607 4.17434 16.6822 4.28243 16.6822 4.39158C16.6867 4.50351 16.6685 4.61518 16.6287 4.7199C16.5889 4.82461 16.5284 4.92022 16.4508 5.00098C16.3732 5.08174 16.28 5.14599 16.177 5.18988C16.0739 5.23377 15.9631 5.25639 15.851 5.25639C15.739 5.25639 15.6282 5.23377 15.5251 5.18988C15.422 5.14599 15.3289 5.08174 15.2513 5.00098C15.1737 4.92022 15.1132 4.82461 15.0734 4.7199C15.0336 4.61518 15.0154 4.50351 15.0198 4.39158Z" fill="url(#paint1_linear_5410_43390)"/>
</g>
<path fill-rule="evenodd" clip-rule="evenodd" d="M14.5937 17.239V8.28516H12.0354V19.7979H19.7088V17.2384L14.5937 17.239Z" fill="white"/>
<defs>
<linearGradient id="paint0_linear_5410_43390" x1="7.74318" y1="3.02148" x2="7.74318" y2="19.9054" gradientUnits="userSpaceOnUse">
<stop stop-color="#FF6503"/>
<stop offset="1" stop-color="#C8009F"/>
</linearGradient>
<linearGradient id="paint1_linear_5410_43390" x1="15.8507" y1="2.2793" x2="15.8507" y2="21.7221" gradientUnits="userSpaceOnUse">
<stop stop-color="#FF6503"/>
<stop offset="1" stop-color="#C8009F"/>
</linearGradient>
</defs>
</svg>
